<svg xmlns="http://www.w3.org/2000/svg" xmlns:xlink="http://www.w3.org/1999/xlink" version="1.1" width="346" height="318" enable-background="new 0 0 346 318" xml:space="preserve" style=""><rect id="backgroundrect" width="100%" height="100%" x="0" y="0" fill="none" stroke="none"/>




<g class="currentLayer" style=""><title>Layer 1</title><path fill="#3e8e0d" d="M88.364,288.404c-3.066-1.432-5.927-3.131-7.982-5.936c-1.035-1.412-1.764-2.984-2.554-4.527  c-0.181-0.352-0.124-0.711-0.125-1.068c-0.081-25.498-0.151-50.996-0.262-76.494c-0.004-1.003,0.313-1.161,1.211-1.158  c9.147,0.031,18.294,0.039,27.441-0.008c1.037-0.006,1.231,0.281,1.229,1.266c-0.03,19.021-0.014,38.045-0.049,57.066  c-0.002,1.057,0.234,1.313,1.306,1.313c43.833-0.031,87.666-0.032,131.498,0c1.131,0.002,1.354-0.313,1.354-1.387  c-0.026-58.727-0.026-117.453,0.002-176.181c0-1.047-0.219-1.313-1.297-1.313c-43.833,0.032-87.666,0.032-131.498,0.001  c-1.104-0.001-1.364,0.272-1.362,1.367c0.036,18.981,0.019,37.964,0.047,56.945c0.003,1.004-0.148,1.358-1.281,1.352  c-9.146-0.057-18.294-0.047-27.44-0.009c-0.947,0.004-1.184-0.235-1.179-1.183c0.113-25.457,0.2-50.915,0.263-76.372  c0.003-1.314,0.711-2.295,1.254-3.347c1.895-3.664,4.771-6.267,8.653-7.725c0.727-0.272,174.138-0.336,175.417,0.354  c3.009,1.625,5.298,3.92,6.97,6.886c0.463,0.821,0.73,1.696,1.023,2.572c0,72.372,0,144.743,0,217.114  c-1.626,4.992-5.056,8.275-9.791,10.313c-0.444,0.19-0.922,0.278-1.416,0.247c-56.705,0.001-113.406,0-170.107-0.004  C89.246,288.49,88.795,288.574,88.364,288.404z" id="svg_1" class="selected" fill-opacity="1"/><path fill="#3e8e0d" d="M33,160.391c0.338-0.072,0.238-0.369,0.291-0.582c0.739-3.039,2.688-4.604,5.854-4.774  c6.471-0.35,12.947-0.273,19.42-0.296c25.739-0.09,51.479-0.142,77.216-0.165c1.162-0.001,1.357-0.373,1.356-1.428  c-0.013-10.158,0.018-20.316,0.063-30.475c0.009-2.021,0.113-4.044,0.201-6.065c0.188-4.288,3.935-7.326,8.194-6.673  c1.192,0.184,2.194,0.668,3.093,1.509c10.399,9.741,20.428,19.86,30.493,29.94c6.892,6.901,13.819,13.769,20.486,20.891  c1.216,1.299,2.401,2.627,3.409,4.102c1.606,2.352,1.564,4.466-0.243,6.664c-2.78,3.38-5.908,6.439-8.979,9.549  c-13.248,13.424-26.563,26.778-40.054,39.959c-1.649,1.611-3.417,3.1-5.066,4.71c-2.118,2.069-4.557,2.103-7.079,1.104  c-2.582-1.021-4.008-2.963-4.239-5.813c-0.338-4.163-0.271-8.331-0.29-12.497c-0.037-8.176-0.029-16.352,0.006-24.525  c0.004-0.94-0.222-1.217-1.197-1.219c-27.034-0.037-54.066-0.094-81.101-0.188c-5.38-0.02-10.766,0.011-16.138-0.366  c-2.875-0.202-4.759-1.889-5.402-4.679c-0.058-0.244,0.098-0.6-0.295-0.71c0-0.323,0-0.647,0-0.972c0.152-0.162,0.152-0.324,0-0.485  c0-0.243,0-0.485,0-0.729c0.254-0.533,0.064-1.101,0.125-1.648c-0.059-0.42,0.129-0.864-0.125-1.266c0-2.753,0-5.505,0-8.258  c0.206-0.809,0.206-1.619,0-2.428c0-0.243,0-0.486,0-0.729c0.152-0.162,0.152-0.324,0-0.485C33,161.039,33,160.715,33,160.391z" id="svg_2" class="selected" fill-opacity="1"/><path fill="#3E8E42" d="M33,161.361c0.361,0.162,0.318,0.324,0,0.486C33,161.688,33,161.523,33,161.361z" id="svg_3"/><path fill="#3E8E42" d="M33,176.905c0.316,0.161,0.359,0.323,0,0.485C33,177.229,33,177.066,33,176.905z" id="svg_4"/></g></svg>